<svg width="175" height="75" viewBox="0 0 175 75" fill="none" xmlns="http://www.w3.org/2000/svg">
<path fill-rule="evenodd" clip-rule="evenodd" d="M31.8485 9.61464C29.8057 12.1336 26.5371 14.1204 23.2686 13.8366C22.86 10.4306 24.4603 6.81184 26.3329 4.57671C28.3757 1.98679 31.9506 0.141913 34.8446 0C35.1851 3.54784 33.8573 7.02471 31.8485 9.61464ZM34.8103 14.5105C31.9308 14.3378 29.3033 15.4128 27.1811 16.2812C25.8154 16.84 24.6589 17.3132 23.779 17.3132C22.7916 17.3132 21.5874 16.8147 20.2353 16.255C18.4636 15.5216 16.438 14.6831 14.3139 14.7233C9.44514 14.7943 4.91687 17.668 2.43143 22.2447C-2.67565 31.3981 1.10359 44.9509 6.04043 52.4013C8.45778 56.0911 11.3518 60.1356 15.1651 59.9937C16.8427 59.9277 18.0495 59.3941 19.2984 58.8419C20.7362 58.2061 22.2298 57.5457 24.5621 57.5457C26.8135 57.5457 28.2418 58.1889 29.6129 58.8064C30.9166 59.3935 32.1686 59.9573 34.0272 59.9227C37.9767 59.8518 40.4621 56.233 42.8795 52.5432C45.4882 48.5831 46.6346 44.7182 46.8085 44.1317C46.8185 44.0982 46.8253 44.0754 46.8289 44.0639C46.8248 44.0596 46.7925 44.0442 46.7357 44.0171C45.8636 43.601 39.1982 40.4213 39.1343 31.8948C39.0701 24.7381 44.4211 21.112 45.2634 20.5412C45.3147 20.5065 45.3493 20.483 45.3649 20.4708C41.9602 15.22 36.6488 14.6524 34.8103 14.5105ZM62.1504 59.5325V4.22179H82.068C92.3503 4.22179 99.5342 11.6013 99.5342 22.3867C99.5342 33.1721 92.2141 40.6226 81.7957 40.6226H70.3899V59.5325H62.1504ZM70.3891 11.4598H79.8882C87.0381 11.4598 91.1238 15.4333 91.1238 22.4226C91.1238 29.4118 87.0381 33.4208 79.8542 33.4208H70.3891V11.4598ZM126.738 52.8979C124.559 57.2263 119.759 59.9581 114.583 59.9581C106.923 59.9581 101.577 55.204 101.577 48.0374C101.577 40.9417 106.753 36.8617 116.32 36.2586L126.602 35.62V32.5688C126.602 28.0631 123.776 25.6151 118.737 25.6151C114.583 25.6151 111.553 27.8502 110.94 31.2561H103.518C103.756 24.0895 110.225 18.8742 118.976 18.8742C128.407 18.8742 134.535 24.0186 134.535 32.0012V59.5324H126.909V52.8979H126.738ZM116.796 53.395C112.404 53.395 109.612 51.1954 109.612 47.8249C109.612 44.348 112.302 42.3258 117.443 42.0065L126.602 41.4033V44.5254C126.602 49.7053 122.38 53.395 116.796 53.395ZM159.832 61.6967C156.529 71.3823 152.75 74.5754 144.715 74.5754C144.102 74.5754 142.059 74.5044 141.583 74.3625V67.7281C142.093 67.799 143.353 67.87 144 67.87C147.643 67.87 149.686 66.2734 150.946 62.1225L151.695 59.6745L137.735 19.4066H146.349L156.053 52.0821H156.223L165.926 19.4066H174.302L159.832 61.6967Z" fill="black"/>
</svg>
