<svg width="151" height="117" viewBox="0 0 151 117" fill="none" xmlns="http://www.w3.org/2000/svg">
<path d="M95.7391 82.6501H54.9834V9.89209H95.7391V82.6501Z" fill="#6C6BBD"/>
<path d="M57.571 46.2725C57.571 31.5132 64.5275 18.366 75.3605 9.89345C67.4386 3.6979 57.4407 -1.52588e-05 46.575 -1.52588e-05C20.8517 -1.52588e-05 0 20.7165 0 46.2725C0 71.8284 20.8517 92.5449 46.575 92.5449C57.4407 92.5449 67.4386 88.847 75.3605 82.6515C64.5275 74.1789 57.571 61.0317 57.571 46.2725Z" fill="#EB001B"/>
<path d="M150.723 46.2725C150.723 71.8284 129.871 92.5449 104.148 92.5449C93.2824 92.5449 83.2845 88.847 75.3596 82.6515C86.1956 74.1789 93.1521 61.0317 93.1521 46.2725C93.1521 31.5132 86.1956 18.366 75.3596 9.89345C83.2845 3.6979 93.2824 -1.52588e-05 104.148 -1.52588e-05C129.871 -1.52588e-05 150.723 20.7165 150.723 46.2725Z" fill="#0099DF"/>
<path d="M109.529 103.209C110.071 103.209 110.849 103.312 111.445 103.545L110.615 106.063C110.047 105.83 109.478 105.754 108.933 105.754C107.174 105.754 106.295 106.884 106.295 108.913V115.803H103.603V103.518H106.268V105.01C106.967 103.93 107.977 103.209 109.529 103.209Z" fill="#231F20"/>
<path d="M99.5844 105.96H95.1866V111.511C95.1866 112.744 95.6249 113.568 96.9724 113.568C97.6713 113.568 98.5509 113.335 99.3505 112.873L100.126 115.159C99.2735 115.75 97.929 116.112 96.7651 116.112C93.5815 116.112 92.471 114.415 92.471 111.561V105.96H89.9597V103.518H92.471V99.7909H95.1866V103.518H99.5844V105.96Z" fill="#231F20"/>
<path fill-rule="evenodd" clip-rule="evenodd" d="M68.4833 103.209C71.9512 103.209 74.3322 105.83 74.3589 109.661C74.3589 110.017 74.3326 110.347 74.3062 110.679L74.3056 110.687H65.122C65.51 112.897 67.0885 113.694 68.8209 113.694C70.0618 113.694 71.3826 113.232 72.4161 112.408L73.737 114.388C72.2355 115.647 70.5297 116.109 68.6669 116.109C64.9651 116.109 62.3264 113.565 62.3264 109.661C62.3264 105.83 64.8614 103.209 68.4833 103.209ZM68.4328 105.598C66.5168 105.598 65.4329 106.807 65.1456 108.581H71.5631C71.2788 106.678 70.1653 105.598 68.4328 105.598Z" fill="#231F20"/>
<path d="M86.1806 106.654C85.4314 106.189 83.9062 105.598 82.3277 105.598C80.8529 105.598 79.9734 106.139 79.9734 107.04C79.9734 107.86 80.9033 108.093 82.0671 108.246L83.3346 108.425C86.0266 108.814 87.6554 109.943 87.6554 112.103C87.6554 114.441 85.5854 116.112 82.0168 116.112C79.9971 116.112 78.1343 115.597 76.6595 114.518L77.927 112.435C78.8332 113.129 80.1807 113.721 82.0434 113.721C83.8795 113.721 84.8628 113.182 84.8628 112.229C84.8628 111.538 84.1638 111.149 82.689 110.946L81.4215 110.767C78.6526 110.379 77.1511 109.146 77.1511 107.143C77.1511 104.701 79.1708 103.209 82.3011 103.209C84.2675 103.209 86.0533 103.648 87.3445 104.495L86.1806 106.654Z" fill="#231F20"/>
<path fill-rule="evenodd" clip-rule="evenodd" d="M122.029 103.706C121.211 103.374 120.323 103.209 119.363 103.209C118.404 103.209 117.515 103.374 116.698 103.706C115.881 104.036 115.179 104.492 114.587 105.071C113.994 105.651 113.529 106.336 113.192 107.125C112.854 107.916 112.685 108.775 112.685 109.702C112.685 110.629 112.854 111.488 113.192 112.279C113.529 113.067 113.994 113.756 114.587 114.335C115.179 114.915 115.881 115.368 116.698 115.7C117.515 116.03 118.404 116.195 119.363 116.195C120.323 116.195 121.211 116.03 122.029 115.7C122.846 115.368 123.554 114.915 124.149 114.335C124.747 113.756 125.212 113.067 125.55 112.279C125.888 111.488 126.056 110.629 126.056 109.702C126.056 108.775 125.888 107.916 125.55 107.125C125.212 106.336 124.747 105.651 124.149 105.071C123.554 104.492 122.846 104.036 122.029 103.706ZM117.82 106.036C118.297 105.845 118.809 105.748 119.363 105.748C119.917 105.748 120.432 105.845 120.906 106.036C121.383 106.23 121.798 106.501 122.144 106.848C122.496 107.195 122.769 107.613 122.97 108.098C123.169 108.584 123.266 109.119 123.266 109.702C123.266 110.287 123.169 110.82 122.97 111.305C122.769 111.791 122.496 112.208 122.144 112.555C121.798 112.903 121.383 113.173 120.906 113.367C120.432 113.562 119.917 113.656 119.363 113.656C118.809 113.656 118.297 113.562 117.82 113.367C117.346 113.173 116.935 112.903 116.588 112.555C116.242 112.208 115.969 111.791 115.771 111.305C115.573 110.82 115.475 110.287 115.475 109.702C115.475 109.119 115.573 108.584 115.771 108.098C115.969 107.613 116.242 107.195 116.588 106.848C116.935 106.501 117.346 106.23 117.82 106.036Z" fill="#231F20"/>
<path fill-rule="evenodd" clip-rule="evenodd" d="M59.4388 103.518V109.661V115.803H56.7498V114.312C55.8939 115.418 54.6027 116.112 52.8436 116.112C49.3757 116.112 46.66 113.412 46.66 109.661C46.66 105.907 49.3757 103.209 52.8436 103.209C54.6027 103.209 55.8939 103.904 56.7498 105.01V103.518H59.4388ZM53.1781 105.727C50.8504 105.727 49.4259 107.501 49.4259 109.661C49.4259 111.82 50.8504 113.591 53.1781 113.591C55.4022 113.591 56.9036 111.896 56.9036 109.661C56.9036 107.425 55.4022 105.727 53.1781 105.727Z" fill="#231F20"/>
<path d="M44.2795 115.803V108.093C44.2795 105.189 42.4167 103.236 39.4168 103.209C37.8383 103.183 36.2065 103.671 35.0693 105.395C34.2164 104.033 32.8689 103.209 30.9795 103.209C29.6617 103.209 28.3675 103.595 27.3577 105.033V103.518H24.6686V115.803H27.3843V108.993C27.3843 106.86 28.5748 105.727 30.4109 105.727C32.1967 105.727 33.1029 106.884 33.1029 108.966V115.803H35.8186V108.993C35.8186 106.86 37.0624 105.727 38.8452 105.727C40.6843 105.727 41.5638 106.884 41.5638 108.966V115.803H44.2795V115.803Z" fill="#231F20"/>
</svg>
