<svg width="20" height="20" viewBox="0 0 20 20" fill="none" xmlns="http://www.w3.org/2000/svg">
<path d="M13.0001 8.00012L9.00012 12.0001L7.00012 10.0001M5.33186 1.93762L1.93762 5.33186L1.93454 5.33475C1.59069 5.6786 1.41836 5.85093 1.29504 6.05216C1.18539 6.23111 1.10438 6.42642 1.05538 6.63049C1.00012 6.86067 1.00012 7.10518 1.00012 7.59436V12.4059C1.00012 12.8951 1.00012 13.1396 1.05538 13.3698C1.10438 13.5739 1.18539 13.7689 1.29504 13.9479C1.41869 14.1496 1.59194 14.3229 1.93762 14.6686L5.33185 18.0628C5.67776 18.4087 5.85033 18.5813 6.05216 18.705C6.23111 18.8146 6.42593 18.896 6.63 18.9449C6.85983 19.0001 7.10395 19.0001 7.59164 19.0001H12.4076C12.8953 19.0001 13.1405 19.0001 13.3703 18.9449C13.5744 18.896 13.7694 18.8146 13.9484 18.705C14.1502 18.5813 14.3232 18.4087 14.6691 18.0628L18.0633 14.6686C18.4092 14.3227 18.5818 14.1497 18.7055 13.9479C18.8151 13.7689 18.8955 13.5739 18.9445 13.3698C18.9997 13.1396 19.0001 12.8951 19.0001 12.4059V7.59436C19.0001 7.10518 18.9997 6.86067 18.9445 6.63049C18.8955 6.42642 18.8151 6.23111 18.7055 6.05217C18.5818 5.85034 18.4092 5.67773 18.0633 5.33185L14.6691 1.93762C14.3234 1.59194 14.1501 1.41869 13.9484 1.29504C13.7694 1.18539 13.5744 1.10438 13.3703 1.05538C13.1401 1.00012 12.8946 1.00012 12.4054 1.00012H7.59387C7.10469 1.00012 6.86018 1.00012 6.63 1.05538C6.42593 1.10438 6.23111 1.18539 6.05216 1.29504C5.85216 1.41761 5.68118 1.58859 5.34152 1.92825L5.33186 1.93762Z" stroke="white" stroke-width="2" stroke-linecap="round" stroke-linejoin="round"/>
</svg>
